<svg width="64" height="64" viewBox="0 0 64 64" fill="none" xmlns="http://www.w3.org/2000/svg">
<rect x="23.04" y="28.16" width="17.92" height="7.68" rx="1.5" fill="black"/>
<path d="M10.24 6C10.24 2.68629 12.9263 0 16.24 0H20.48V64H16.24C12.9263 64 10.24 61.3137 10.24 58V6Z" fill="black"/>
<path d="M0 16.52C0 13.7586 2.23858 11.52 5 11.52H7.68V52.48H5C2.23858 52.48 0 50.2414 0 47.48V16.52Z" fill="black"/>
<path d="M53.76 6C53.76 2.68629 51.0737 0 47.76 0H43.52V64H47.76C51.0737 64 53.76 61.3137 53.76 58V6Z" fill="black"/>
<path d="M64 16.52C64 13.7586 61.7614 11.52 59 11.52H56.32V52.48H59C61.7614 52.48 64 50.2414 64 47.48V16.52Z" fill="black"/>
</svg>
