<svg width="1024" height="576" viewBox="0 0 1024 576" fill="none" xmlns="http://www.w3.org/2000/svg">
<path d="M323.368 271.33C323.368 262.4 330.607 255.16 339.537 255.16H684.463C693.393 255.16 700.632 262.4 700.632 271.33V303.67C700.632 312.6 693.393 319.84 684.463 319.84H339.537C330.607 319.84 323.368 312.6 323.368 303.67V271.33Z" fill="black"/>
<path d="M188.632 93.46C188.632 51.7846 222.413 18 264.084 18H296.421V557H264.084C222.413 557 188.632 523.215 188.632 481.54V93.46Z" fill="black"/>
<path d="M0 190.48C0 169.642 16.8906 152.75 37.7263 152.75H53.8947V422.25H37.7263C16.8906 422.25 0 405.358 0 384.52V190.48Z" fill="black"/>
<path d="M80.8421 125.8C80.8421 96.0319 104.972 71.9 134.737 71.9H161.684V503.1H134.737C104.972 503.1 80.8421 478.968 80.8421 449.2V125.8Z" fill="black"/>
<path d="M835.368 93.46C835.368 51.7846 801.587 18 759.916 18H727.579V557H759.916C801.587 557 835.368 523.215 835.368 481.54V93.46Z" fill="black"/>
<path d="M1024 190.48C1024 169.642 1007.11 152.75 986.274 152.75H970.105V422.25H986.274C1007.11 422.25 1024 405.358 1024 384.52V190.48Z" fill="black"/>
<path d="M943.158 125.8C943.158 96.0319 919.028 71.9 889.263 71.9H862.316V503.1H889.263C919.028 503.1 943.158 478.968 943.158 449.2V125.8Z" fill="black"/>
<path d="M423.947 491.652C418.684 496.126 412.816 499.573 406.342 501.995C399.868 504.363 393.132 505.548 386.132 505.548C380.763 505.548 375.579 504.837 370.579 503.416C365.632 502.047 361 500.1 356.684 497.573C352.368 494.994 348.421 491.941 344.842 488.414C341.263 484.835 338.211 480.887 335.684 476.571C333.158 472.202 331.184 467.518 329.763 462.517C328.395 457.517 327.711 452.332 327.711 446.963C327.711 441.594 328.395 436.436 329.763 431.488C331.184 426.54 333.158 421.908 335.684 417.592C338.211 413.223 341.263 409.275 344.842 405.748C348.421 402.169 352.368 399.116 356.684 396.59C361 394.063 365.632 392.115 370.579 390.747C375.579 389.326 380.763 388.615 386.132 388.615C393.132 388.615 399.868 389.826 406.342 392.247C412.816 394.616 418.684 398.037 423.947 402.511L412.105 422.25C408.684 418.776 404.737 416.065 400.263 414.118C395.789 412.117 391.079 411.117 386.132 411.117C381.184 411.117 376.526 412.065 372.158 413.96C367.842 415.855 364.053 418.434 360.789 421.697C357.526 424.908 354.947 428.698 353.053 433.067C351.158 437.383 350.211 442.015 350.211 446.963C350.211 451.963 351.158 456.648 353.053 461.017C354.947 465.386 357.526 469.202 360.789 472.465C364.053 475.729 367.842 478.308 372.158 480.203C376.526 482.098 381.184 483.045 386.132 483.045C388.974 483.045 391.737 482.703 394.421 482.019C397.105 481.335 399.658 480.387 402.079 479.177V446.963H423.947V491.652Z" fill="black"/>
<path d="M510.182 457.859V435.199C510.182 432.093 509.577 429.172 508.366 426.435C507.208 423.645 505.603 421.224 503.551 419.171C501.498 417.118 499.077 415.512 496.287 414.354C493.551 413.144 490.63 412.539 487.524 412.539C484.419 412.539 481.472 413.144 478.682 414.354C475.945 415.512 473.551 417.118 471.498 419.171C469.445 421.224 467.814 423.645 466.603 426.435C465.445 429.172 464.866 432.093 464.866 435.199V457.859H510.182ZM532.84 503.1H510.182V480.44H464.866V503.1H442.287V435.199C442.287 428.935 443.472 423.066 445.84 417.592C448.208 412.065 451.419 407.249 455.472 403.143C459.577 399.037 464.366 395.8 469.84 393.431C475.366 391.063 481.261 389.878 487.524 389.878C493.787 389.878 499.656 391.063 505.13 393.431C510.656 395.8 515.472 399.037 519.577 403.143C523.682 407.249 526.919 412.065 529.287 417.592C531.656 423.066 532.84 428.935 532.84 435.199V503.1Z" fill="black"/>
<path d="M577.312 503.1H554.654V389.878H577.312V503.1Z" fill="black"/>
<path d="M691.099 503.1H666.862L623.204 428.566V503.1H600.546V389.878H624.783L668.441 464.491V389.878H691.099V503.1Z" fill="black"/>
<path d="M471.579 160.519C471.579 166.141 470.505 171.415 468.358 176.342C466.211 181.269 463.274 185.595 459.547 189.322C455.884 192.986 451.589 195.891 446.663 198.039C441.737 200.186 436.463 201.26 430.842 201.26H362.916V65.3941H430.842C436.463 65.3941 441.737 66.4679 446.663 68.6155C451.589 70.763 455.884 73.7002 459.547 77.4269C463.274 81.0904 466.211 85.3855 468.358 90.3123C470.505 95.2391 471.579 100.513 471.579 106.135C471.579 108.661 471.232 111.251 470.537 113.904C469.842 116.557 468.863 119.115 467.6 121.579C466.337 124.042 464.821 126.284 463.053 128.306C461.284 130.327 459.326 132.001 457.179 133.327C459.389 134.527 461.379 136.169 463.147 138.254C464.916 140.275 466.432 142.517 467.695 144.981C468.958 147.444 469.905 150.034 470.537 152.75C471.232 155.403 471.579 157.993 471.579 160.519ZM390.105 174.068H430.842C432.737 174.068 434.505 173.72 436.147 173.026C437.789 172.331 439.211 171.383 440.411 170.183C441.674 168.92 442.653 167.467 443.347 165.825C444.042 164.183 444.389 162.414 444.389 160.519C444.389 158.624 444.042 156.856 443.347 155.213C442.653 153.571 441.674 152.15 440.411 150.95C439.211 149.687 437.789 148.707 436.147 148.013C434.505 147.318 432.737 146.97 430.842 146.97H390.105V174.068ZM390.105 119.778H430.842C432.737 119.778 434.505 119.431 436.147 118.736C437.789 118.041 439.211 117.094 440.411 115.894C441.674 114.63 442.653 113.178 443.347 111.535C444.042 109.83 444.389 108.03 444.389 106.135C444.389 104.24 444.042 102.471 443.347 100.829C442.653 99.1869 441.674 97.7657 440.411 96.5656C439.211 95.3023 437.789 94.3232 436.147 93.6284C434.505 92.9336 432.737 92.5862 430.842 92.5862H390.105V119.778Z" fill="black"/>
<path d="M521.482 201.26H494.293V65.3941H521.482V201.26Z" fill="black"/>
<path d="M657.027 187.522C650.712 192.891 643.67 197.028 635.901 199.934C628.133 202.776 620.048 204.197 611.648 204.197C605.206 204.197 598.985 203.344 592.985 201.639C587.048 199.997 581.491 197.66 576.312 194.628C571.133 191.533 566.396 187.869 562.101 183.637C557.806 179.342 554.143 174.605 551.112 169.425C548.08 164.183 545.712 158.561 544.006 152.561C542.364 146.56 541.543 140.338 541.543 133.896C541.543 127.453 542.364 121.263 544.006 115.325C545.712 109.388 548.08 103.829 551.112 98.65C554.143 93.4074 557.806 88.6701 562.101 84.4381C566.396 80.1429 571.133 76.4794 576.312 73.4475C581.491 70.4156 587.048 68.0786 592.985 66.4363C598.985 64.7309 605.206 63.8782 611.648 63.8782C620.048 63.8782 628.133 65.3309 635.901 68.2365C643.67 71.0789 650.712 75.1845 657.027 80.5535L642.817 104.24C638.712 100.071 633.975 96.8182 628.606 94.4812C623.238 92.0809 617.585 90.8808 611.648 90.8808C605.712 90.8808 600.122 92.0178 594.88 94.2917C589.701 96.5656 585.154 99.6606 581.238 103.577C577.322 107.43 574.227 111.978 571.954 117.22C569.68 122.4 568.543 127.958 568.543 133.896C568.543 139.896 569.68 145.518 571.954 150.76C574.227 156.003 577.322 160.582 581.238 164.499C585.154 168.415 589.701 171.51 594.88 173.784C600.122 176.058 605.712 177.194 611.648 177.194C615.059 177.194 618.375 176.784 621.596 175.963C624.817 175.142 627.88 174.005 630.785 172.552V133.896H657.027V187.522Z" fill="black"/>
</svg>
