<svg xmlns="http://www.w3.org/2000/svg" width="190" height="100" fill="none" viewBox="0 0 190 100">
  <path fill="#000" d="M60 47a3 3 0 0 1 3-3h64a3 3 0 0 1 3 3v6a3 3 0 0 1-3 3H63a3 3 0 0 1-3-3v-6ZM35 14c0-7.732 6.268-14 14-14h6v100h-6c-7.732 0-14-6.268-14-14V14ZM0 32a7 7 0 0 1 7-7h3v50H7a7 7 0 0 1-7-7V32Zm15-10c0-6.627 5.373-12 12-12h3v80h-5c-5.523 0-10-4.477-10-10V22Zm140-8c0-7.732-6.268-14-14-14h-6v100h6c7.732 0 14-6.268 14-14V14Zm35 18a7 7 0 0 0-7-7h-3v50h3a7 7 0 0 0 7-7V32Zm-15-12c0-5.523-4.477-10-10-10h-5v80h5c5.523 0 10-4.477 10-10V20ZM78.662 87.876c-.977.83-2.065 1.47-3.267 1.919-1.2.44-2.45.66-3.75.66-.996 0-1.957-.133-2.885-.396a10.752 10.752 0 0 1-2.578-1.084 11.59 11.59 0 0 1-2.198-1.7 10.841 10.841 0 0 1-1.699-2.197c-.469-.81-.835-1.68-1.098-2.607a10.883 10.883 0 0 1-.381-2.886c0-.996.127-1.953.38-2.871a11.15 11.15 0 0 1 1.1-2.578 10.328 10.328 0 0 1 1.698-2.197 10.752 10.752 0 0 1 4.775-2.783c.928-.264 1.89-.396 2.886-.396 1.3 0 2.55.224 3.75.674a10.66 10.66 0 0 1 3.267 1.904L76.465 75a6.947 6.947 0 0 0-2.197-1.509 6.353 6.353 0 0 0-2.623-.556c-.917 0-1.782.175-2.592.527a6.866 6.866 0 0 0-2.11 1.435 6.622 6.622 0 0 0-1.435 2.11c-.352.8-.527 1.66-.527 2.578 0 .928.175 1.797.527 2.607a6.798 6.798 0 0 0 3.545 3.56c.81.352 1.675.527 2.593.527.527 0 1.04-.063 1.538-.19a7.078 7.078 0 0 0 1.42-.528v-5.976h4.058v8.291Zm16.001-6.27v-4.204c0-.576-.113-1.118-.337-1.626a4.115 4.115 0 0 0-.894-1.347 4.11 4.11 0 0 0-1.347-.894 3.973 3.973 0 0 0-1.626-.337c-.577 0-1.124.113-1.641.337a4.154 4.154 0 0 0-1.333.894c-.38.38-.684.83-.908 1.347a4.128 4.128 0 0 0-.323 1.626v4.204h8.409ZM98.867 90h-4.204v-4.204h-8.409V90h-4.189V77.402c0-1.162.22-2.25.66-3.266a8.594 8.594 0 0 1 1.786-2.68 8.512 8.512 0 0 1 2.666-1.803 8.242 8.242 0 0 1 3.282-.659c1.162 0 2.25.22 3.266.66a8.468 8.468 0 0 1 2.68 1.801 8.465 8.465 0 0 1 1.803 2.68 8.13 8.13 0 0 1 .659 3.267V90Zm8.251 0h-4.204V68.994h4.204V90Zm21.113 0h-4.497l-8.1-13.828V90h-4.205V68.994h4.498l8.1 13.843V68.994h4.204V90ZM87.5 26.441c0 1.043-.2 2.022-.598 2.936a7.754 7.754 0 0 1-1.634 2.408 7.692 7.692 0 0 1-2.391 1.617 7.265 7.265 0 0 1-2.936.598H67.338V8.793H79.94c1.043 0 2.022.2 2.936.598.914.398 1.71.943 2.39 1.634a7.543 7.543 0 0 1 1.635 2.391c.399.914.598 1.893.598 2.936 0 .468-.064.949-.193 1.441-.13.492-.31.967-.545 1.424a6.145 6.145 0 0 1-.844 1.248 4.796 4.796 0 0 1-1.09.931c.41.223.78.528 1.108.915A6.242 6.242 0 0 1 87.306 25c.129.491.193.972.193 1.44Zm-15.117 2.514h7.558a2.5 2.5 0 0 0 1.776-.72 2.5 2.5 0 0 0 .738-1.793 2.5 2.5 0 0 0-.193-.985 2.33 2.33 0 0 0-.545-.791 2.33 2.33 0 0 0-.791-.545 2.5 2.5 0 0 0-.985-.193h-7.558v5.027Zm0-10.072h7.558a2.5 2.5 0 0 0 1.776-.72c.234-.235.416-.505.545-.81a2.63 2.63 0 0 0 .193-1.001 2.5 2.5 0 0 0-.193-.985 2.33 2.33 0 0 0-.545-.79 2.332 2.332 0 0 0-.791-.546 2.5 2.5 0 0 0-.985-.193h-7.558v5.045ZM96.76 34h-5.046V8.793h5.045V34Zm25.149-2.549a13.067 13.067 0 0 1-3.92 2.303 12.993 12.993 0 0 1-4.5.79c-1.195 0-2.349-.157-3.462-.474a12.9 12.9 0 0 1-3.094-1.3 13.914 13.914 0 0 1-2.637-2.04 13.027 13.027 0 0 1-2.039-2.636 13.713 13.713 0 0 1-1.318-3.13 13.045 13.045 0 0 1-.457-3.462c0-1.195.152-2.344.457-3.445a13.446 13.446 0 0 1 1.318-3.094 12.406 12.406 0 0 1 2.039-2.637 12.9 12.9 0 0 1 5.731-3.34 12.599 12.599 0 0 1 3.462-.474c1.559 0 3.059.27 4.5.808a12.777 12.777 0 0 1 3.92 2.285L119.273 16a8.342 8.342 0 0 0-2.637-1.81 7.623 7.623 0 0 0-3.147-.668c-1.101 0-2.138.21-3.111.632a8.206 8.206 0 0 0-2.531 1.723 7.94 7.94 0 0 0-1.723 2.531 7.608 7.608 0 0 0-.633 3.094c0 1.113.211 2.156.633 3.129a8.153 8.153 0 0 0 4.254 4.271c.973.422 2.01.633 3.111.633.633 0 1.249-.076 1.846-.228a8.472 8.472 0 0 0 1.705-.633v-7.172h4.869v9.95Z"/>
</svg>
